<?xml version="1.0" encoding="UTF-8" ?>
<!DOCTYPE svg PUBLIC "-//W3C//DTD SVG 1.1//EN" "http://www.w3.org/Graphics/SVG/1.1/DTD/svg11.dtd">
<svg width="284pt" height="124pt" viewBox="0 0 284 124" version="1.1" xmlns="http://www.w3.org/2000/svg">
<path fill="#ffffff" d=" M 0.00 0.00 L 284.00 0.00 L 284.00 124.00 L 0.00 124.00 L 0.00 0.00 Z" />
<path fill="#000000" d=" M 227.74 14.77 C 229.49 9.68 237.67 7.75 240.24 13.11 C 242.20 17.44 237.66 20.25 234.18 21.34 C 239.04 23.61 239.15 30.27 235.95 33.99 C 233.09 37.91 227.73 38.90 223.25 37.74 C 221.86 37.37 221.36 35.35 222.52 34.45 C 225.60 33.41 227.81 37.81 230.95 36.45 C 234.98 34.86 235.64 29.47 234.03 25.92 C 232.63 23.18 229.18 23.29 226.59 22.69 C 229.67 21.50 233.36 21.29 235.73 18.72 C 237.58 16.86 237.58 13.03 234.91 11.91 C 232.07 10.70 229.82 13.29 227.74 14.77 Z" />
<path fill="#000000" d=" M 182.74 22.76 C 192.44 22.20 202.18 22.67 211.91 22.51 C 211.91 23.03 211.91 24.07 211.92 24.59 C 202.90 24.58 193.88 24.64 184.86 24.56 C 184.55 31.52 184.81 38.49 184.71 45.45 L 182.64 45.41 C 182.69 37.86 182.53 30.31 182.74 22.76 Z" />
<path fill="#000000" d=" M 251.45 22.51 C 260.89 22.60 270.35 22.35 279.78 22.62 L 280.54 23.25 C 280.94 30.64 280.60 38.05 280.69 45.44 L 278.62 45.41 C 278.65 38.58 278.55 31.75 278.68 24.92 C 269.63 24.17 260.50 24.81 251.42 24.59 L 251.45 22.51 Z" />
<path fill="#000000" d=" M 26.22 50.15 C 43.47 50.16 60.71 50.16 77.96 50.15 C 77.96 69.78 78.04 89.42 77.92 109.04 C 75.04 117.80 64.28 123.55 55.41 120.55 C 50.87 118.85 49.94 112.95 52.17 109.07 C 56.46 101.27 66.69 95.93 75.30 99.90 C 75.22 86.79 75.29 73.68 75.26 60.57 C 59.81 60.57 44.35 60.57 28.89 60.57 C 28.90 75.06 28.88 89.56 28.91 104.05 C 28.85 115.32 15.97 124.13 5.41 120.55 C 0.54 118.80 0.77 112.40 2.48 108.47 C 7.10 100.79 17.97 95.39 26.26 100.62 C 26.20 83.80 26.05 66.97 26.22 50.15 Z" />
<path fill="#000000" d=" M 205.47 51.06 C 205.07 49.42 208.29 48.79 208.03 50.82 C 208.36 69.53 207.91 88.27 208.27 106.98 C 208.07 111.91 204.21 115.68 200.38 118.29 C 196.30 121.14 191.00 122.01 186.18 120.84 C 183.19 119.99 180.93 117.09 181.01 113.96 C 180.94 109.26 184.23 105.40 187.76 102.69 C 192.61 98.81 199.81 96.95 205.48 100.17 C 205.37 83.80 205.39 67.43 205.47 51.06 Z" />
<path fill="#000000" d=" M 263.51 49.86 C 265.29 48.65 266.64 50.85 266.73 52.33 C 268.40 63.98 279.20 71.19 282.85 81.99 C 284.20 89.13 283.81 97.07 279.87 103.37 C 278.49 103.77 277.51 103.33 276.92 102.04 C 279.05 96.69 281.41 90.89 280.03 85.03 C 277.80 77.54 271.42 72.62 266.16 67.29 C 266.43 79.26 266.08 91.24 266.34 103.22 C 268.05 115.16 253.31 124.70 242.73 120.22 C 238.44 118.07 238.14 112.20 240.47 108.49 C 244.96 101.00 255.35 95.62 263.60 100.27 C 263.44 83.47 263.63 66.66 263.51 49.86 Z" />
<path fill="#000000" d=" M 104.47 69.56 C 123.82 69.60 143.18 69.60 162.54 69.56 C 162.61 72.99 162.62 76.42 162.60 79.85 C 143.20 79.85 123.80 79.85 104.40 79.85 C 104.38 76.42 104.38 72.99 104.47 69.56 Z" />
<path fill="#000000" d=" M 104.56 92.65 C 123.85 92.71 143.15 92.71 162.44 92.65 C 162.67 96.21 162.65 99.78 162.52 103.35 C 143.17 103.32 123.83 103.31 104.49 103.35 C 104.35 99.78 104.32 96.21 104.56 92.65 Z" />
</svg>
